<svg xmlns="http://www.w3.org/2000/svg" viewBox="0 0 42 42"><g stroke="#18222b" stroke-width="1.8" stroke-linejoin="round" stroke-linecap="round"><path fill="#71977b" d="M8 33 10 21 6 14l10 2 4-6 8 2 7 10-9 5-3 9H11Z"/><path fill="#d3bb82" d="m17 15-2-9 9 6m1 1 6-7-1 11"/><path fill="#aac597" stroke="none" d="m13 19 8-3 9 7-7 1-3 8h-8Z"/><path fill="#ba743d" d="M8 22h11l2 7-8 3-5-4Z"/><path fill="#f3cf83" stroke="none" d="M10 24h8v3l-5 2-3-2Z"/><path stroke="#172b26" d="m25 18 3 1"/><path fill="#f2ce76" d="M3 2h4v9h3l-5 5-5-5h3Z" transform="translate(1 1) scale(.8)"/></g></svg>
